<svg width="1280" height="285" viewBox="0 0 1280 285" fill="none" xmlns="http://www.w3.org/2000/svg">
<path d="M-7 0H1273V277H-7V0Z" fill="black"/>
<g clip-path="url(#clip0_1030_1773)">
<path opacity="0.3" d="M633.61 170.416L603.57 159.5L573.362 169.093L553 197.371V227.797L572.376 255.081L602.916 265.5L633.456 256.074L652.006 229.287V196.874L633.617 170.416H633.61ZM637.79 224.469L624.567 243.569L602.799 250.287L581.031 242.861L567.222 223.407V201.717L581.734 181.556L603.268 174.719L624.684 182.499L637.79 201.364V224.469Z" fill="url(#paint0_radial_1030_1773)"/>
</g>
<g clip-path="url(#clip1_1030_1773)">
<path opacity="0.3" d="M631.097 173.489L603.483 163.5L575.717 172.279L557 198.155V225.998L574.81 250.965L602.882 260.5L630.955 251.874L648.006 227.362V197.701L631.102 173.489H631.097ZM634.938 222.952L622.784 240.431L602.775 246.579L582.766 239.783L570.073 221.981V202.133L583.412 183.683L603.205 177.427L622.891 184.547L634.938 201.809V222.952Z" fill="url(#paint1_radial_1030_1773)"/>
</g>
<path opacity="0.3" d="M957.794 148.499L921.27 139.076L885.902 151.537L863.502 183.195L865.512 215.642L890.407 243.307L927.493 252.164L963.269 239.857L983.608 209.922L981.467 175.356L957.802 148.499L957.794 148.499ZM966.347 205.833L951.848 227.177L926.349 235.949L899.915 229.637L882.172 209.91L880.739 186.781L896.703 164.208L921.915 155.328L947.954 162.044L964.82 181.193L966.347 205.833Z" fill="url(#paint2_radial_1030_1773)"/>
<path opacity="0.3" d="M955.012 150.902L920.748 142.062L887.568 153.752L866.554 183.451L868.44 213.89L891.794 239.843L926.586 248.152L960.148 236.607L979.228 208.524L977.219 176.097L955.019 150.902L955.012 150.902ZM963.035 204.688L949.434 224.712L925.512 232.941L900.714 227.019L884.069 208.513L882.725 186.815L897.701 165.64L921.353 157.309L945.78 163.609L961.603 181.573L963.035 204.688Z" fill="url(#paint3_radial_1030_1773)"/>
<g clip-path="url(#clip2_1030_1773)">
<path opacity="0.3" d="M1073.76 230.08L1025.03 212.5L976.03 227.95L943 273.49V322.49L974.43 366.43L1023.97 383.21L1073.51 368.03L1103.6 324.89V272.69L1073.77 230.08H1073.76ZM1080.54 317.13L1059.09 347.89L1023.78 358.71L988.47 346.75L966.07 315.42V280.49L989.61 248.02L1024.54 237.01L1059.28 249.54L1080.54 279.92V317.13Z" fill="url(#paint4_radial_1030_1773)"/>
</g>
<g clip-path="url(#clip3_1030_1773)">
<path opacity="0.3" d="M1071.39 234.389L1024.66 217.5L977.675 232.343L946 276.093V323.167L976.14 365.38L1023.65 381.5L1071.15 366.917L1100.01 325.472V275.324L1071.4 234.389H1071.39ZM1077.9 318.017L1057.33 347.568L1023.47 357.963L989.604 346.473L968.123 316.375V282.818L990.697 251.624L1024.19 241.047L1057.51 253.084L1077.9 282.27V318.017Z" fill="url(#paint5_radial_1030_1773)"/>
</g>
<g clip-path="url(#clip4_1030_1773)">
<path opacity="0.3" d="M679.202 241.926L662.628 236.497L646.333 242.286L635.742 258.116L636.291 274.755L647.345 289.328L664.183 294.477L680.662 288.773L690.292 273.791L689.707 256.065L679.205 241.926L679.202 241.926ZM682.455 271.411L675.59 282.094L663.844 286.159L651.844 282.489L643.965 272.099L643.574 260.237L651.122 248.951L662.738 244.825L674.553 248.695L682.038 258.776L682.455 271.411Z" fill="url(#paint6_radial_1030_1773)"/>
</g>
<g clip-path="url(#clip5_1030_1773)">
<path opacity="0.3" d="M678.024 245.212L662.996 240.289L648.222 245.538L638.619 259.891L639.116 274.978L649.14 288.191L664.406 292.86L679.347 287.688L688.079 274.104L687.549 258.032L678.027 245.212L678.024 245.212ZM680.973 271.946L674.749 281.632L664.099 285.318L653.218 281.99L646.074 272.569L645.72 261.815L652.563 251.581L663.096 247.84L673.809 251.349L680.595 260.489L680.973 271.946Z" fill="url(#paint7_radial_1030_1773)"/>
</g>
<g clip-path="url(#clip6_1030_1773)">
<path opacity="0.3" d="M1086.19 183.651L1076.02 169.482L1059.45 164.532L1041.55 171.053L1032.17 184.805L1032.49 203.093L1043.03 217.192L1059.7 222.32L1076.32 215.915L1086.32 201.265L1086.19 183.653L1086.19 183.651ZM1071.4 209.367L1059.55 213.935L1047.67 210.28L1040.15 200.231L1039.93 187.193L1046.62 177.39L1059.38 172.738L1071.19 176.268L1078.44 186.369L1078.53 198.924L1071.4 209.367Z" fill="url(#paint8_radial_1030_1773)"/>
</g>
<g clip-path="url(#clip7_1030_1773)">
<path opacity="0.3" d="M1083.29 185.607L1074.07 172.76L1059.05 168.272L1042.83 174.185L1034.32 186.653L1034.61 203.236L1044.17 216.018L1059.28 220.668L1074.35 214.861L1083.41 201.578L1083.3 185.609L1083.29 185.607ZM1069.89 208.924L1059.15 213.065L1048.37 209.751L1041.56 200.64L1041.36 188.819L1047.42 179.93L1058.99 175.713L1069.7 178.913L1076.27 188.071L1076.35 199.455L1069.89 208.924Z" fill="url(#paint9_radial_1030_1773)"/>
</g>
<g clip-path="url(#clip8_1030_1773)">
<path opacity="0.3" d="M851.281 208.413L806.612 199.108L764.586 216.178L739.323 255.708L743.6 294.798L775.256 326.809L820.573 335.398L863.1 318.49L885.97 281.16L881.414 239.517L851.29 208.412L851.281 208.413ZM864.88 277.203L848.578 303.819L818.266 315.871L785.966 309.749L763.404 286.924L760.355 259.058L778.359 230.875L808.317 218.708L840.162 225.34L861.633 247.518L864.88 277.203Z" fill="url(#paint10_radial_1030_1773)"/>
</g>
<g clip-path="url(#clip9_1030_1773)">
<path opacity="0.3" d="M848.974 211.216L807.469 202.569L768.42 218.431L744.946 255.16L748.92 291.482L778.334 321.225L820.441 329.206L859.956 313.496L881.206 278.81L876.973 240.116L848.983 211.215L848.974 211.216ZM861.61 275.133L846.462 299.864L818.298 311.062L788.286 305.374L767.321 284.166L764.489 258.273L781.217 232.086L809.053 220.782L838.643 226.944L858.593 247.55L861.61 275.133Z" fill="url(#paint11_radial_1030_1773)"/>
</g>
<g clip-path="url(#clip10_1030_1773)">
<path opacity="0.3" d="M735.438 183.974L712.788 176.399L690.393 184.108L675.701 205.554L676.264 228.223L691.248 248.191L714.262 255.387L736.908 247.797L750.274 227.495L749.674 203.346L735.442 183.974L735.438 183.974ZM739.562 224.169L730.034 238.645L713.892 244.055L697.489 238.926L686.81 224.688L686.409 208.528L696.88 193.237L712.844 187.744L728.991 193.143L739.134 206.954L739.562 224.169Z" fill="url(#paint12_radial_1030_1773)"/>
</g>
<g clip-path="url(#clip11_1030_1773)">
<path opacity="0.3" d="M733.355 186.262L712.61 179.324L692.099 186.384L678.642 206.026L679.158 226.788L692.881 245.077L713.96 251.668L734.701 244.717L746.943 226.122L746.393 204.004L733.359 186.262L733.355 186.262ZM737.132 223.076L728.405 236.334L713.621 241.289L698.598 236.591L688.817 223.551L688.449 208.75L698.039 194.745L712.661 189.714L727.45 194.659L736.74 207.309L737.132 223.076Z" fill="url(#paint13_radial_1030_1773)"/>
</g>
<g clip-path="url(#clip12_1030_1773)">
<path opacity="0.3" d="M320.61 165.416L290.57 154.5L260.362 164.093L240 192.371V222.797L259.376 250.081L289.916 260.5L320.456 251.074L339.006 224.287V191.874L320.617 165.416H320.61ZM324.79 219.469L311.567 238.569L289.799 245.287L268.031 237.861L254.222 218.407V196.717L268.734 176.556L290.268 169.719L311.684 177.499L324.79 196.364V219.469Z" fill="url(#paint14_radial_1030_1773)"/>
</g>
<g clip-path="url(#clip13_1030_1773)">
<path opacity="0.3" d="M318.097 168.489L290.483 158.5L262.717 167.279L244 193.155V220.998L261.81 245.965L289.882 255.5L317.955 246.874L335.006 222.362V192.701L318.102 168.489H318.097ZM321.938 217.952L309.784 235.431L289.775 241.579L269.766 234.783L257.073 216.981V197.133L270.412 178.683L290.205 172.427L309.891 179.547L321.938 196.809V217.952Z" fill="url(#paint15_radial_1030_1773)"/>
</g>
<path opacity="0.3" d="M96.5293 160.658L62.3689 151.844L29.2901 163.499L8.33978 193.108L10.2196 223.454L33.5032 249.329L68.1895 257.613L101.65 246.103L120.672 218.105L118.669 185.776L96.5362 160.657L96.5293 160.658ZM104.528 214.28L90.968 234.243L67.119 242.447L42.3961 236.544L25.8015 218.094L24.4614 196.461L39.3918 175.35L62.9724 167.045L87.3256 173.326L103.1 191.236L104.528 214.28Z" fill="url(#paint16_radial_1030_1773)"/>
<path opacity="0.3" d="M93.927 162.905L61.8806 154.638L30.8488 165.571L11.195 193.348L12.9585 221.816L34.8012 246.09L67.341 253.86L98.7306 243.063L116.575 216.797L114.697 186.47L93.9335 162.905L93.927 162.905ZM101.431 213.21L88.7099 231.938L66.3367 239.634L43.1438 234.095L27.5761 216.787L26.319 196.493L40.3254 176.689L62.4468 168.897L85.2928 174.79L100.091 191.591L101.431 213.21Z" fill="url(#paint17_radial_1030_1773)"/>
<g clip-path="url(#clip14_1030_1773)">
<path opacity="0.3" d="M231.76 214.08L183.03 196.5L134.03 211.95L101 257.49V306.49L132.43 350.43L181.97 367.21L231.51 352.03L261.6 308.89V256.69L231.77 214.08H231.76ZM238.54 301.13L217.09 331.89L181.78 342.71L146.47 330.75L124.07 299.42V264.49L147.61 232.02L182.54 221.01L217.28 233.54L238.54 263.92V301.13Z" fill="url(#paint18_radial_1030_1773)"/>
</g>
<g clip-path="url(#clip15_1030_1773)">
<path opacity="0.3" d="M229.394 218.389L182.664 201.5L135.675 216.343L104 260.093V307.167L134.14 349.38L181.647 365.5L229.154 350.917L258.01 309.472V259.324L229.404 218.389H229.394ZM235.896 302.017L215.326 331.568L181.465 341.963L147.604 330.473L126.123 300.375V266.818L148.697 235.624L182.194 225.047L215.508 237.084L235.896 266.27V302.017Z" fill="url(#paint19_radial_1030_1773)"/>
</g>
<g clip-path="url(#clip16_1030_1773)">
<path opacity="0.3" d="M364.202 236.926L347.628 231.497L331.333 237.286L320.742 253.116L321.29 269.755L332.345 284.328L349.182 289.477L365.662 283.773L375.291 268.791L374.707 251.065L364.205 236.926L364.202 236.926ZM367.455 266.411L360.59 277.094L348.844 281.159L336.843 277.489L328.965 267.099L328.574 255.237L336.121 243.951L347.737 239.825L359.553 243.695L367.038 253.776L367.455 266.411Z" fill="url(#paint20_radial_1030_1773)"/>
</g>
<g clip-path="url(#clip17_1030_1773)">
<path opacity="0.3" d="M363.024 240.212L347.996 235.289L333.222 240.538L323.619 254.891L324.116 269.978L334.14 283.191L349.406 287.86L364.347 282.688L373.079 269.104L372.549 253.032L363.027 240.212L363.024 240.212ZM365.973 266.946L359.749 276.632L349.099 280.318L338.218 276.99L331.074 267.569L330.72 256.815L337.563 246.581L348.096 242.84L358.809 246.349L365.595 255.489L365.973 266.946Z" fill="url(#paint21_radial_1030_1773)"/>
</g>
<g clip-path="url(#clip18_1030_1773)">
<path opacity="0.3" d="M420.438 186.974L397.788 179.399L375.393 187.108L360.701 208.554L361.264 231.223L376.248 251.191L399.262 258.387L421.908 250.797L435.274 230.495L434.674 206.346L420.442 186.974L420.438 186.974ZM424.562 227.169L415.034 241.645L398.892 247.055L382.489 241.926L371.81 227.688L371.409 211.528L381.88 196.237L397.844 190.744L413.991 196.143L424.134 209.954L424.562 227.169Z" fill="url(#paint22_radial_1030_1773)"/>
</g>
<g clip-path="url(#clip19_1030_1773)">
<path opacity="0.3" d="M418.355 189.262L397.61 182.324L377.099 189.384L363.642 209.026L364.158 229.788L377.881 248.077L398.96 254.668L419.701 247.717L431.943 229.122L431.393 207.004L418.359 189.262L418.355 189.262ZM422.132 226.076L413.405 239.334L398.621 244.289L383.598 239.591L373.817 226.551L373.449 211.75L383.039 197.745L397.661 192.714L412.45 197.659L421.74 210.309L422.132 226.076Z" fill="url(#paint23_radial_1030_1773)"/>
</g>
<g clip-path="url(#clip20_1030_1773)">
<path opacity="0.3" d="M545.76 223.08L497.03 205.5L448.03 220.95L415 266.49V315.49L446.43 359.43L495.97 376.21L545.51 361.03L575.6 317.89V265.69L545.77 223.08H545.76ZM552.54 310.13L531.09 340.89L495.78 351.71L460.47 339.75L438.07 308.42V273.49L461.61 241.02L496.54 230.01L531.28 242.54L552.54 272.92V310.13Z" fill="url(#paint24_radial_1030_1773)"/>
</g>
<g clip-path="url(#clip21_1030_1773)">
<path opacity="0.3" d="M543.394 227.389L496.664 210.5L449.675 225.343L418 269.093V316.167L448.14 358.38L495.647 374.5L543.154 359.917L572.01 318.472V268.324L543.404 227.389H543.394ZM549.896 311.017L529.326 340.568L495.465 350.963L461.604 339.473L440.123 309.375V275.818L462.697 244.624L496.194 234.047L529.508 246.084L549.896 275.27V311.017Z" fill="url(#paint25_radial_1030_1773)"/>
</g>
<path opacity="0.3" d="M18.3724 236.825L1.30927 233.216L-14.2655 240.73L-23.0858 257.611L-20.7445 274.093L-8.18132 287.387L9.11322 290.689L24.8807 283.24L32.8369 267.306L30.3426 249.747L18.3757 236.824L18.3724 236.825ZM24.789 265.786L19.1176 277.147L7.87931 282.457L-4.4475 280.104L-13.4019 270.624L-15.0709 258.874L-8.78547 246.839L2.31728 241.483L14.4816 244.055L23.011 253.269L24.789 265.786Z" fill="url(#paint26_radial_1030_1773)"/>
<path opacity="0.3" d="M17.4481 239.224L1.97703 235.952L-12.1445 242.765L-20.1419 258.071L-18.019 273.016L-6.62806 285.069L9.05284 288.063L23.3491 281.309L30.563 266.861L28.3015 250.941L17.4511 239.224L17.4481 239.224ZM23.266 265.483L18.1238 275.785L7.93405 280.599L-3.24261 278.465L-11.3615 269.87L-12.8748 259.217L-7.17584 248.304L2.89098 243.448L13.9203 245.78L21.6539 254.135L23.266 265.483Z" fill="url(#paint27_radial_1030_1773)"/>
<path opacity="0.3" d="M1208.56 251.432L1192.96 246.319L1177.61 251.77L1167.64 266.674L1168.16 282.34L1178.57 296.06L1194.42 300.908L1209.93 295.538L1219 281.432L1218.45 264.743L1208.56 251.432L1208.56 251.432ZM1211.62 279.191L1205.16 289.249L1194.1 293.077L1182.8 289.621L1175.38 279.839L1175.02 268.671L1182.12 258.045L1193.06 254.161L1204.18 257.804L1211.23 267.295L1211.62 279.191Z" fill="url(#paint28_radial_1030_1773)"/>
<path opacity="0.3" d="M1207.68 254.878L1193.53 250.243L1179.62 255.185L1170.58 268.698L1171.05 282.902L1180.49 295.342L1194.86 299.738L1208.93 294.869L1217.15 282.079L1216.65 266.948L1207.68 254.878L1207.68 254.878ZM1210.46 280.048L1204.6 289.167L1194.57 292.638L1184.33 289.505L1177.6 280.635L1177.27 270.509L1183.71 260.874L1193.63 257.353L1203.71 260.656L1210.1 269.262L1210.46 280.048Z" fill="url(#paint29_radial_1030_1773)"/>
<g clip-path="url(#clip22_1030_1773)">
<path opacity="0.3" d="M1264.44 198.974L1241.79 191.399L1219.39 199.108L1204.7 220.554L1205.26 243.223L1220.25 263.191L1243.26 270.387L1265.91 262.797L1279.27 242.495L1278.67 218.346L1264.44 198.974L1264.44 198.974ZM1268.56 239.169L1259.03 253.645L1242.89 259.055L1226.49 253.926L1215.81 239.688L1215.41 223.528L1225.88 208.237L1241.84 202.744L1257.99 208.143L1268.13 221.954L1268.56 239.169Z" fill="url(#paint30_radial_1030_1773)"/>
</g>
<g clip-path="url(#clip23_1030_1773)">
<path opacity="0.3" d="M1262.35 201.262L1241.61 194.324L1221.1 201.384L1207.64 221.026L1208.16 241.788L1221.88 260.077L1242.96 266.668L1263.7 259.717L1275.94 241.122L1275.39 219.004L1262.36 201.262L1262.35 201.262ZM1266.13 238.076L1257.41 251.334L1242.62 256.289L1227.6 251.591L1217.82 238.551L1217.45 223.75L1227.04 209.745L1241.66 204.714L1256.45 209.659L1265.74 222.309L1266.13 238.076Z" fill="url(#paint31_radial_1030_1773)"/>
</g>
<g clip-path="url(#clip24_1030_1773)">
<path opacity="0.3" d="M1163.61 182.416L1133.57 171.5L1103.36 181.093L1083 209.371V239.797L1102.38 267.081L1132.92 277.5L1163.46 268.074L1182.01 241.287V208.874L1163.62 182.416H1163.61ZM1167.79 236.469L1154.57 255.569L1132.8 262.287L1111.03 254.861L1097.22 235.407V213.717L1111.73 193.556L1133.27 186.719L1154.68 194.499L1167.79 213.364V236.469Z" fill="url(#paint32_radial_1030_1773)"/>
</g>
<g clip-path="url(#clip25_1030_1773)">
<path opacity="0.3" d="M1161.1 185.489L1133.48 175.5L1105.72 184.279L1087 210.155V237.998L1104.81 262.965L1132.88 272.5L1160.95 263.874L1178.01 239.362V209.701L1161.1 185.489H1161.1ZM1164.94 234.952L1152.78 252.431L1132.77 258.579L1112.77 251.783L1100.07 233.981V214.133L1113.41 195.683L1133.21 189.427L1152.89 196.547L1164.94 213.809V234.952Z" fill="url(#paint33_radial_1030_1773)"/>
</g>
<defs>
<radialGradient id="paint0_radial_1030_1773" cx="0" cy="0" r="1" gradientUnits="userSpaceOnUse" gradientTransform="translate(602.503 212.503) scale(51.0874 51.457)">
<stop offset="0.67" stop-color="white" stop-opacity="0"/>
<stop offset="1" stop-color="#E72027"/>
</radialGradient>
<radialGradient id="paint1_radial_1030_1773" cx="0" cy="0" r="1" gradientUnits="userSpaceOnUse" gradientTransform="translate(602.503 212.003) scale(46.9592 47.088)">
<stop offset="0.67" stop-color="white" stop-opacity="0"/>
<stop offset="1" stop-color="#E72027"/>
</radialGradient>
<radialGradient id="paint2_radial_1030_1773" cx="0" cy="0" r="1" gradientUnits="userSpaceOnUse" gradientTransform="translate(923.5 195.678) rotate(-3.54466) scale(61.0038 54.9796)">
<stop offset="0.67" stop-color="white" stop-opacity="0"/>
<stop offset="1" stop-color="#E72027"/>
</radialGradient>
<radialGradient id="paint3_radial_1030_1773" cx="0" cy="0" r="1" gradientUnits="userSpaceOnUse" gradientTransform="translate(922.84 195.161) rotate(-3.54466) scale(57.2287 51.5772)">
<stop offset="0.67" stop-color="white" stop-opacity="0"/>
<stop offset="1" stop-color="#E72027"/>
</radialGradient>
<radialGradient id="paint4_radial_1030_1773" cx="0" cy="0" r="1" gradientUnits="userSpaceOnUse" gradientTransform="translate(1023.3 297.86) scale(82.87)">
<stop offset="0.67" stop-color="white" stop-opacity="0"/>
<stop offset="1" stop-color="#E72027"/>
</radialGradient>
<radialGradient id="paint5_radial_1030_1773" cx="0" cy="0" r="1" gradientUnits="userSpaceOnUse" gradientTransform="translate(1023 299.505) scale(79.4693 79.6127)">
<stop offset="0.67" stop-color="white" stop-opacity="0"/>
<stop offset="1" stop-color="#E72027"/>
</radialGradient>
<radialGradient id="paint6_radial_1030_1773" cx="0" cy="0" r="1" gradientUnits="userSpaceOnUse" gradientTransform="translate(663.002 265.502) rotate(-1.8879) scale(27.8659 28.1557)">
<stop offset="0.67" stop-color="white" stop-opacity="0"/>
<stop offset="1" stop-color="#E72027"/>
</radialGradient>
<radialGradient id="paint7_radial_1030_1773" cx="0" cy="0" r="1" gradientUnits="userSpaceOnUse" gradientTransform="translate(663.335 266.588) rotate(-1.8879) scale(25.2659 25.5287)">
<stop offset="0.67" stop-color="white" stop-opacity="0"/>
<stop offset="1" stop-color="#E72027"/>
</radialGradient>
<radialGradient id="paint8_radial_1030_1773" cx="0" cy="0" r="1" gradientUnits="userSpaceOnUse" gradientTransform="translate(1059.19 193.111) rotate(34.3059) scale(27.8659 28.1557)">
<stop offset="0.67" stop-color="white" stop-opacity="0"/>
<stop offset="1" stop-color="#E72027"/>
</radialGradient>
<radialGradient id="paint9_radial_1030_1773" cx="0" cy="0" r="1" gradientUnits="userSpaceOnUse" gradientTransform="translate(1058.82 194.184) rotate(34.3059) scale(25.2659 25.5287)">
<stop offset="0.67" stop-color="white" stop-opacity="0"/>
<stop offset="1" stop-color="#E72027"/>
</radialGradient>
<radialGradient id="paint10_radial_1030_1773" cx="0" cy="0" r="1" gradientUnits="userSpaceOnUse" gradientTransform="translate(812.53 267.373) rotate(-6.24342) scale(73.793 66.5057)">
<stop offset="0.67" stop-color="white" stop-opacity="0"/>
<stop offset="1" stop-color="#E72027"/>
</radialGradient>
<radialGradient id="paint11_radial_1030_1773" cx="0" cy="0" r="1" gradientUnits="userSpaceOnUse" gradientTransform="translate(812.968 265.999) rotate(-6.24342) scale(68.5664 61.7953)">
<stop offset="0.67" stop-color="white" stop-opacity="0"/>
<stop offset="1" stop-color="#E72027"/>
</radialGradient>
<radialGradient id="paint12_radial_1030_1773" cx="0" cy="0" r="1" gradientUnits="userSpaceOnUse" gradientTransform="translate(712.972 215.909) rotate(-1.42316) scale(38.1866 38.35)">
<stop offset="0.67" stop-color="white" stop-opacity="0"/>
<stop offset="1" stop-color="#E72027"/>
</radialGradient>
<radialGradient id="paint13_radial_1030_1773" cx="0" cy="0" r="1" gradientUnits="userSpaceOnUse" gradientTransform="translate(712.778 215.51) rotate(-1.42316) scale(34.9749 35.1246)">
<stop offset="0.67" stop-color="white" stop-opacity="0"/>
<stop offset="1" stop-color="#E72027"/>
</radialGradient>
<radialGradient id="paint14_radial_1030_1773" cx="0" cy="0" r="1" gradientUnits="userSpaceOnUse" gradientTransform="translate(289.503 207.503) scale(51.0874 51.457)">
<stop offset="0.67" stop-color="white" stop-opacity="0"/>
<stop offset="1" stop-color="#E72027"/>
</radialGradient>
<radialGradient id="paint15_radial_1030_1773" cx="0" cy="0" r="1" gradientUnits="userSpaceOnUse" gradientTransform="translate(289.503 207.003) scale(46.9592 47.088)">
<stop offset="0.67" stop-color="white" stop-opacity="0"/>
<stop offset="1" stop-color="#E72027"/>
</radialGradient>
<radialGradient id="paint16_radial_1030_1773" cx="0" cy="0" r="1" gradientUnits="userSpaceOnUse" gradientTransform="translate(64.4548 204.783) rotate(-3.54466) scale(57.0553 51.4209)">
<stop offset="0.67" stop-color="white" stop-opacity="0"/>
<stop offset="1" stop-color="#E72027"/>
</radialGradient>
<radialGradient id="paint17_radial_1030_1773" cx="0" cy="0" r="1" gradientUnits="userSpaceOnUse" gradientTransform="translate(63.8374 204.3) rotate(-3.54466) scale(53.5245 48.2388)">
<stop offset="0.67" stop-color="white" stop-opacity="0"/>
<stop offset="1" stop-color="#E72027"/>
</radialGradient>
<radialGradient id="paint18_radial_1030_1773" cx="0" cy="0" r="1" gradientUnits="userSpaceOnUse" gradientTransform="translate(181.3 281.86) scale(82.87)">
<stop offset="0.67" stop-color="white" stop-opacity="0"/>
<stop offset="1" stop-color="#E72027"/>
</radialGradient>
<radialGradient id="paint19_radial_1030_1773" cx="0" cy="0" r="1" gradientUnits="userSpaceOnUse" gradientTransform="translate(181.005 283.505) scale(79.4693 79.6127)">
<stop offset="0.67" stop-color="white" stop-opacity="0"/>
<stop offset="1" stop-color="#E72027"/>
</radialGradient>
<radialGradient id="paint20_radial_1030_1773" cx="0" cy="0" r="1" gradientUnits="userSpaceOnUse" gradientTransform="translate(348.002 260.502) rotate(-1.8879) scale(27.8659 28.1557)">
<stop offset="0.67" stop-color="white" stop-opacity="0"/>
<stop offset="1" stop-color="#E72027"/>
</radialGradient>
<radialGradient id="paint21_radial_1030_1773" cx="0" cy="0" r="1" gradientUnits="userSpaceOnUse" gradientTransform="translate(348.335 261.588) rotate(-1.8879) scale(25.2659 25.5287)">
<stop offset="0.67" stop-color="white" stop-opacity="0"/>
<stop offset="1" stop-color="#E72027"/>
</radialGradient>
<radialGradient id="paint22_radial_1030_1773" cx="0" cy="0" r="1" gradientUnits="userSpaceOnUse" gradientTransform="translate(397.972 218.909) rotate(-1.42316) scale(38.1866 38.35)">
<stop offset="0.67" stop-color="white" stop-opacity="0"/>
<stop offset="1" stop-color="#E72027"/>
</radialGradient>
<radialGradient id="paint23_radial_1030_1773" cx="0" cy="0" r="1" gradientUnits="userSpaceOnUse" gradientTransform="translate(397.778 218.51) rotate(-1.42316) scale(34.9749 35.1246)">
<stop offset="0.67" stop-color="white" stop-opacity="0"/>
<stop offset="1" stop-color="#E72027"/>
</radialGradient>
<radialGradient id="paint24_radial_1030_1773" cx="0" cy="0" r="1" gradientUnits="userSpaceOnUse" gradientTransform="translate(495.3 290.86) scale(82.87)">
<stop offset="0.67" stop-color="white" stop-opacity="0"/>
<stop offset="1" stop-color="#E72027"/>
</radialGradient>
<radialGradient id="paint25_radial_1030_1773" cx="0" cy="0" r="1" gradientUnits="userSpaceOnUse" gradientTransform="translate(495.005 292.505) scale(79.4693 79.6127)">
<stop offset="0.67" stop-color="white" stop-opacity="0"/>
<stop offset="1" stop-color="#E72027"/>
</radialGradient>
<radialGradient id="paint26_radial_1030_1773" cx="0" cy="0" r="1" gradientUnits="userSpaceOnUse" gradientTransform="translate(4.81199 262.011) rotate(-8.08461) scale(27.8659 28.1557)">
<stop offset="0.67" stop-color="white" stop-opacity="0"/>
<stop offset="1" stop-color="#E72027"/>
</radialGradient>
<radialGradient id="paint27_radial_1030_1773" cx="0" cy="0" r="1" gradientUnits="userSpaceOnUse" gradientTransform="translate(5.15292 262.061) rotate(-8.08461) scale(25.2659 25.5287)">
<stop offset="0.67" stop-color="white" stop-opacity="0"/>
<stop offset="1" stop-color="#E72027"/>
</radialGradient>
<radialGradient id="paint28_radial_1030_1773" cx="0" cy="0" r="1" gradientUnits="userSpaceOnUse" gradientTransform="translate(1193.31 273.628) rotate(-1.8879) scale(26.2356 26.5085)">
<stop offset="0.67" stop-color="white" stop-opacity="0"/>
<stop offset="1" stop-color="#E72027"/>
</radialGradient>
<radialGradient id="paint29_radial_1030_1773" cx="0" cy="0" r="1" gradientUnits="userSpaceOnUse" gradientTransform="translate(1193.85 275.003) rotate(-1.8879) scale(23.7877 24.0352)">
<stop offset="0.67" stop-color="white" stop-opacity="0"/>
<stop offset="1" stop-color="#E72027"/>
</radialGradient>
<radialGradient id="paint30_radial_1030_1773" cx="0" cy="0" r="1" gradientUnits="userSpaceOnUse" gradientTransform="translate(1241.97 230.909) rotate(-1.42316) scale(38.1866 38.35)">
<stop offset="0.67" stop-color="white" stop-opacity="0"/>
<stop offset="1" stop-color="#E72027"/>
</radialGradient>
<radialGradient id="paint31_radial_1030_1773" cx="0" cy="0" r="1" gradientUnits="userSpaceOnUse" gradientTransform="translate(1241.78 230.51) rotate(-1.42316) scale(34.9749 35.1246)">
<stop offset="0.67" stop-color="white" stop-opacity="0"/>
<stop offset="1" stop-color="#E72027"/>
</radialGradient>
<radialGradient id="paint32_radial_1030_1773" cx="0" cy="0" r="1" gradientUnits="userSpaceOnUse" gradientTransform="translate(1132.5 224.503) scale(51.0874 51.457)">
<stop offset="0.67" stop-color="white" stop-opacity="0"/>
<stop offset="1" stop-color="#E72027"/>
</radialGradient>
<radialGradient id="paint33_radial_1030_1773" cx="0" cy="0" r="1" gradientUnits="userSpaceOnUse" gradientTransform="translate(1132.5 224.003) scale(46.9592 47.088)">
<stop offset="0.67" stop-color="white" stop-opacity="0"/>
<stop offset="1" stop-color="#E72027"/>
</radialGradient>
<clipPath id="clip0_1030_1773">
<rect width="99" height="106" fill="white" transform="translate(553 159.5)"/>
</clipPath>
<clipPath id="clip1_1030_1773">
<rect width="91" height="97" fill="white" transform="translate(557 163.5)"/>
</clipPath>
<clipPath id="clip2_1030_1773">
<rect width="160.59" height="170.71" fill="white" transform="translate(943 212.5)"/>
</clipPath>
<clipPath id="clip3_1030_1773">
<rect width="154" height="164" fill="white" transform="translate(946 217.5)"/>
</clipPath>
<clipPath id="clip4_1030_1773">
<rect width="54" height="58" fill="white" transform="translate(635.06 237.405) rotate(-1.8879)"/>
</clipPath>
<clipPath id="clip5_1030_1773">
<rect width="48.9616" height="52.5884" fill="white" transform="translate(638 241.113) rotate(-1.8879)"/>
</clipPath>
<clipPath id="clip6_1030_1773">
<rect width="54" height="58" fill="white" transform="translate(1053.23 153.936) rotate(34.3059)"/>
</clipPath>
<clipPath id="clip7_1030_1773">
<rect width="48.9616" height="52.5884" fill="white" transform="translate(1053.42 158.665) rotate(34.3059)"/>
</clipPath>
<clipPath id="clip8_1030_1773">
<rect width="143" height="137" fill="white" transform="translate(734 207.052) rotate(-6.24342)"/>
</clipPath>
<clipPath id="clip9_1030_1773">
<rect width="132.872" height="127.297" fill="white" transform="translate(740 209.95) rotate(-6.24342)"/>
</clipPath>
<clipPath id="clip10_1030_1773">
<rect width="74" height="79" fill="white" transform="translate(675 177.338) rotate(-1.42316)"/>
</clipPath>
<clipPath id="clip11_1030_1773">
<rect width="67.7763" height="72.3558" fill="white" transform="translate(678 180.183) rotate(-1.42316)"/>
</clipPath>
<clipPath id="clip12_1030_1773">
<rect width="99" height="106" fill="white" transform="translate(240 154.5)"/>
</clipPath>
<clipPath id="clip13_1030_1773">
<rect width="91" height="97" fill="white" transform="translate(244 158.5)"/>
</clipPath>
<clipPath id="clip14_1030_1773">
<rect width="160.59" height="170.71" fill="white" transform="translate(101 196.5)"/>
</clipPath>
<clipPath id="clip15_1030_1773">
<rect width="154" height="164" fill="white" transform="translate(104 201.5)"/>
</clipPath>
<clipPath id="clip16_1030_1773">
<rect width="54" height="58" fill="white" transform="translate(320.059 232.405) rotate(-1.8879)"/>
</clipPath>
<clipPath id="clip17_1030_1773">
<rect width="48.9616" height="52.5884" fill="white" transform="translate(323 236.113) rotate(-1.8879)"/>
</clipPath>
<clipPath id="clip18_1030_1773">
<rect width="74" height="79" fill="white" transform="translate(360 180.338) rotate(-1.42316)"/>
</clipPath>
<clipPath id="clip19_1030_1773">
<rect width="67.7763" height="72.3558" fill="white" transform="translate(363 183.183) rotate(-1.42316)"/>
</clipPath>
<clipPath id="clip20_1030_1773">
<rect width="160.59" height="170.71" fill="white" transform="translate(415 205.5)"/>
</clipPath>
<clipPath id="clip21_1030_1773">
<rect width="154" height="164" fill="white" transform="translate(418 210.5)"/>
</clipPath>
<clipPath id="clip22_1030_1773">
<rect width="74" height="79" fill="white" transform="translate(1204 192.338) rotate(-1.42316)"/>
</clipPath>
<clipPath id="clip23_1030_1773">
<rect width="67.7763" height="72.3558" fill="white" transform="translate(1207 195.183) rotate(-1.42316)"/>
</clipPath>
<clipPath id="clip24_1030_1773">
<rect width="99" height="106" fill="white" transform="translate(1083 171.5)"/>
</clipPath>
<clipPath id="clip25_1030_1773">
<rect width="91" height="97" fill="white" transform="translate(1087 175.5)"/>
</clipPath>
</defs>
</svg>
